<svg width="1512" height="2253" viewBox="0 0 1512 2253" fill="none" xmlns="http://www.w3.org/2000/svg">
<path d="M-415.253 1875.86C-317.097 1819.21 -209.961 1780.81 -98.9931 1762.51C163.953 1720.33 294.221 1822.62 364.716 1751.71C473.635 1642.12 192.775 1367.28 297.755 1064.82C374.726 842.961 621.561 715.139 678.724 685.57C901.593 570.135 1045.33 621.187 1124.64 491.642C1182.75 396.936 1130.87 328.848 1188.73 161.563C1229.02 45.1066 1294.68 -39.1598 1344.52 -92.7059" stroke="#FF414E" stroke-opacity="0.15" stroke-width="5" stroke-miterlimit="10"/>
<path d="M-399.703 1884.78C-301.527 1828.14 -194.375 1789.73 -83.392 1771.41C179.589 1729.25 309.823 1831.52 380.3 1760.64C489.236 1651.03 208.377 1376.18 313.339 1073.76C390.362 851.882 637.197 724.059 694.325 694.474C917.194 579.038 1060.92 630.127 1140.24 500.546C1198.35 405.84 1146.46 337.787 1204.34 170.467C1244.63 53.9748 1310.28 -30.2561 1360.12 -83.8021" stroke="#FF414E" stroke-opacity="0.15" stroke-width="5" stroke-miterlimit="10"/>
<path d="M-384.153 1893.71C-285.983 1837.05 -178.829 1798.64 -67.8422 1780.33C195.139 1738.18 325.372 1840.44 395.867 1769.53C504.735 1660.06 223.943 1385.07 328.906 1082.64C405.912 860.805 652.747 732.983 709.875 703.398C932.778 587.978 1076.48 639.015 1155.79 509.469C1213.9 414.764 1161.99 346.659 1219.85 179.374C1260.15 62.8818 1325.79 -21.3493 1375.64 -74.8953" stroke="#FF414E" stroke-opacity="0.15" stroke-width="5" stroke-miterlimit="10"/>
<path d="M-368.571 1902.56C-270.386 1845.93 -163.228 1807.54 -52.242 1789.24C210.739 1747.08 340.973 1849.35 411.45 1778.47C520.386 1668.86 239.527 1394.01 344.489 1091.58C421.512 869.711 668.347 741.889 725.475 712.304C948.378 596.884 1092.07 647.956 1171.39 518.375C1229.5 423.67 1177.57 355.6 1235.45 188.28C1275.75 71.788 1341.39 -12.443 1391.24 -65.9891" stroke="#FF414E" stroke-opacity="0.15" stroke-width="5" stroke-miterlimit="10"/>
<path d="M-353.039 1911.52C-254.863 1854.87 -147.711 1816.47 -36.7277 1798.15C226.27 1755.96 356.521 1858.27 426.981 1787.34C535.901 1677.76 255.058 1402.88 360.02 1100.46C437.043 878.582 683.861 750.795 741.007 721.175C963.893 605.791 1107.6 656.827 1186.9 527.281C1245.01 432.576 1193.11 364.471 1250.96 197.186C1291.26 80.6943 1356.94 -3.52003 1406.75 -57.0826" stroke="#FF414E" stroke-opacity="0.15" stroke-width="5" stroke-miterlimit="10"/>
<path d="M-338 1919.93C-239.818 1863.3 -132.669 1824.89 -21.6889 1806.56C241.292 1764.4 371.56 1866.68 442.003 1795.79C550.889 1686.28 270.08 1411.33 374.92 1108.8C451.927 886.964 698.762 759.142 755.89 729.557C978.793 614.137 1122.48 665.209 1201.8 535.628C1259.91 440.922 1207.99 372.853 1265.87 205.533C1306.16 89.0407 1371.84 4.82641 1421.67 -48.7716" stroke="#FF414E" stroke-opacity="0.15" stroke-width="5" stroke-miterlimit="10"/>
<path d="M-321.856 1929.28C-223.668 1872.65 -116.502 1834.28 -5.50972 1816.01C257.488 1773.82 387.739 1876.14 458.199 1805.21C567.153 1695.64 286.31 1420.76 391.273 1118.34C468.261 896.446 715.079 768.658 772.225 739.038C995.111 623.654 1138.82 674.69 1218.12 545.145C1276.23 450.439 1224.32 382.334 1282.18 215.049C1322.52 98.5739 1388.16 14.343 1437.97 -39.2196" stroke="#FF414E" stroke-opacity="0.15" stroke-width="5" stroke-miterlimit="10"/>
<path d="M-306.466 1938.17C-208.296 1881.51 -101.141 1843.1 9.84552 1824.79C272.792 1782.62 403.06 1884.9 473.538 1814.03C582.474 1704.41 301.614 1429.57 406.593 1127.1C483.565 905.25 730.4 777.427 787.563 747.859C1010.43 632.423 1154.12 683.494 1233.47 553.93C1291.59 459.224 1239.68 391.12 1297.57 223.851C1337.86 107.395 1403.5 23.1638 1453.36 -30.4176" stroke="#FF414E" stroke-opacity="0.15" stroke-width="5" stroke-miterlimit="10"/>
<path d="M-290.781 1947.16C-192.602 1890.5 -85.4443 1852.08 25.547 1833.75C288.494 1791.58 418.745 1893.89 489.239 1822.98C598.125 1713.47 317.316 1438.52 422.174 1136.04C499.163 914.154 745.981 786.367 803.161 756.763C1026.01 641.362 1169.75 692.415 1249.06 562.869C1307.17 468.164 1255.29 400.076 1313.15 232.791C1353.45 116.299 1419.1 32.0678 1468.94 -21.4783" stroke="#FF414E" stroke-opacity="0.15" stroke-width="5" stroke-miterlimit="10"/>
<path d="M-275.181 1955.98C-176.964 1899.37 -69.7763 1861.01 41.2343 1842.74C304.215 1800.58 434.449 1902.85 504.943 1831.94C613.863 1722.36 333.003 1447.51 437.982 1145.05C514.954 923.194 761.789 795.372 818.952 765.803C1041.82 650.367 1185.54 701.455 1264.86 571.875C1322.97 477.169 1271.1 409.081 1328.96 241.796C1369.24 125.339 1434.89 41.1082 1484.75 -12.4732" stroke="#FF414E" stroke-opacity="0.15" stroke-width="5" stroke-miterlimit="10"/>
<path d="M-259.716 1964.9C-161.534 1908.27 -54.3848 1869.86 56.5955 1851.53C319.577 1809.37 449.81 1911.64 520.288 1840.76C629.207 1731.18 348.364 1456.3 453.326 1153.87C530.35 931.999 777.168 804.212 834.313 774.592C1057.16 659.191 1200.9 710.244 1280.22 580.663C1338.32 485.993 1286.45 417.904 1344.32 250.584C1384.62 134.092 1450.27 49.8614 1500.11 -3.68469" stroke="#FF414E" stroke-opacity="0.15" stroke-width="5" stroke-miterlimit="10"/>
<path d="M-244.101 1973.86C-145.924 1917.21 -38.7729 1878.81 72.2105 1860.49C335.192 1818.33 465.425 1920.6 535.919 1849.68C644.839 1740.1 363.979 1465.26 468.958 1162.8C545.965 940.958 792.8 813.135 849.928 783.55C1072.83 668.131 1216.52 719.202 1295.84 589.621C1353.95 494.916 1302.04 426.811 1359.9 259.526C1400.19 143.069 1465.83 58.8384 1515.69 5.25699" stroke="#FF414E" stroke-opacity="0.15" stroke-width="5" stroke-miterlimit="10"/>
<path d="M-228.499 1982.68C-130.312 1926.06 -23.1653 1887.65 87.8118 1869.3C350.793 1827.15 481.026 1929.41 551.504 1858.54C660.355 1749.01 379.442 1474.01 484.509 1171.72C561.532 949.844 808.35 822.057 865.495 792.437C1088.38 677.053 1232.09 728.089 1311.41 598.508C1369.5 503.838 1317.59 435.733 1375.47 268.412C1415.77 151.921 1481.45 67.7063 1531.26 14.1437" stroke="#FF414E" stroke-opacity="0.15" stroke-width="5" stroke-miterlimit="10"/>
<path d="M-212.985 1991.67C-114.809 1935.03 -7.65722 1896.62 103.326 1878.3C366.307 1836.14 496.575 1938.42 567.035 1867.5C675.954 1757.91 395.095 1483.07 500.074 1180.61C577.08 958.769 823.915 830.947 881.027 801.397C1103.93 685.978 1247.62 737.049 1326.94 607.469C1385.05 512.763 1333.14 444.658 1391 277.373C1431.28 160.917 1496.96 76.7022 1546.79 23.1042" stroke="#FF414E" stroke-opacity="0.15" stroke-width="5" stroke-miterlimit="10"/>
<path d="M-197.418 2000.56C-99.2361 1943.93 7.91308 1905.52 118.893 1887.19C381.875 1845.03 512.143 1947.31 582.585 1876.42C691.488 1766.87 410.662 1491.96 515.659 1189.55C592.682 967.674 839.5 839.887 896.645 810.267C1119.53 694.883 1263.24 745.919 1342.56 616.338C1400.65 521.668 1348.74 453.563 1406.62 286.243C1446.95 169.767 1512.6 85.5364 1562.41 31.9738" stroke="#FF414E" stroke-opacity="0.15" stroke-width="5" stroke-miterlimit="10"/>
<path d="M-181.784 2009.39C-83.6193 1952.72 23.537 1914.31 134.527 1896.02C397.473 1853.85 527.742 1956.13 598.201 1885.2C707.104 1775.74 426.192 1500.74 531.224 1198.43C608.196 976.579 855.031 848.757 912.159 819.172C1135.06 703.752 1278.75 754.824 1358.07 625.243C1416.18 530.537 1364.28 462.432 1422.13 295.147C1462.45 178.708 1528.09 94.4767 1577.92 40.8787" stroke="#FF414E" stroke-opacity="0.15" stroke-width="5" stroke-miterlimit="10"/>
<path d="M-166.235 2018.4C-68.0653 1961.74 39.0888 1923.34 150.076 1905.03C413.022 1862.86 543.29 1965.14 613.768 1894.26C722.687 1784.68 441.844 1509.8 546.807 1207.37C623.795 985.485 870.613 857.697 927.793 828.093C1150.64 712.693 1294.38 763.746 1373.7 634.165C1431.82 539.459 1379.93 471.406 1437.8 304.086C1478.1 187.594 1543.75 103.363 1593.59 49.8172" stroke="#FF414E" stroke-opacity="0.15" stroke-width="5" stroke-miterlimit="10"/>
<path d="M-150.72 2027.31C-52.5504 1970.65 54.6037 1932.25 165.591 1913.94C428.537 1871.77 558.805 1974.05 629.3 1903.14C738.202 1793.59 457.359 1518.71 562.408 1216.28C639.379 994.426 886.214 866.604 943.377 837.035C1166.25 721.599 1309.97 772.687 1389.29 643.107C1447.4 548.401 1395.53 480.313 1453.39 313.028C1493.67 196.571 1559.31 112.34 1609.17 58.7589" stroke="#FF414E" stroke-opacity="0.15" stroke-width="5" stroke-miterlimit="10"/>
<path d="M-135.103 2036.09C-36.9266 1979.45 70.2249 1941.04 181.208 1922.72C444.19 1880.56 574.423 1982.83 644.9 1911.95C753.838 1802.51 472.942 1527.47 577.888 1225.17C654.912 1003.3 901.747 875.475 958.875 845.89C1181.73 730.489 1325.47 781.542 1404.79 651.961C1462.9 557.256 1411.01 489.203 1468.88 321.882C1509.18 205.39 1574.83 121.16 1624.67 67.6135" stroke="#FF414E" stroke-opacity="0.15" stroke-width="5" stroke-miterlimit="10"/>
<path d="M-119.503 2045.17C-21.3327 1988.51 85.8215 1950.1 196.808 1931.8C459.79 1889.64 590.023 1991.91 660.517 1921C769.437 1811.41 488.577 1536.57 593.556 1234.11C670.459 1012.22 917.294 884.396 974.422 854.811C1197.33 739.391 1341.01 790.463 1420.33 660.882C1478.44 566.177 1426.54 498.072 1484.4 330.787C1524.68 214.33 1590.32 130.099 1640.18 76.5178" stroke="#FF414E" stroke-opacity="0.15" stroke-width="5" stroke-miterlimit="10"/>
<path d="M-104.039 2054.01C-5.86314 1997.37 101.288 1958.96 212.272 1940.64C475.253 1898.48 605.486 2000.75 675.964 1929.87C784.883 1820.29 504.04 1545.41 609.141 1243.05C686.164 1021.18 932.999 893.353 990.128 863.768C1213.01 748.384 1356.72 799.42 1436.04 669.839C1494.15 575.134 1442.23 507.064 1500.1 339.744C1540.4 223.252 1606.05 139.021 1655.89 85.4751" stroke="#FF414E" stroke-opacity="0.15" stroke-width="5" stroke-miterlimit="10"/>
<path d="M-88.4209 2062.79C9.75527 2006.15 116.907 1967.74 227.89 1949.42C490.871 1907.26 621.139 2009.55 691.599 1938.62C800.589 1829.24 519.693 1554.21 624.57 1251.87C701.576 1030.03 948.412 902.211 1005.54 872.626C1228.44 757.206 1372.13 808.278 1451.45 678.697C1509.56 583.991 1457.66 515.886 1515.52 348.601C1555.8 232.145 1621.49 147.895 1671.3 94.3327" stroke="#FF414E" stroke-opacity="0.15" stroke-width="5" stroke-miterlimit="10"/>
<path d="M-72.7534 2071.9C25.4282 2015.27 132.577 1976.86 243.558 1958.53C506.539 1916.37 636.807 2018.66 707.25 1947.76C816.169 1838.18 535.326 1563.3 640.289 1260.87C717.139 1038.92 963.974 911.095 1021.1 881.51C1244.01 766.091 1387.69 817.162 1467.01 687.582C1525.12 592.876 1473.2 524.806 1531.08 357.486C1571.38 240.994 1637.05 156.78 1686.86 103.217" stroke="#FF414E" stroke-opacity="0.15" stroke-width="5" stroke-miterlimit="10"/>
<path d="M-57.3396 2080.76C40.8186 2024.1 147.961 1985.69 258.937 1967.37C521.918 1925.22 652.186 2027.5 722.646 1956.57C831.6 1847 550.74 1572.16 655.685 1269.68C732.691 1047.84 979.526 920.021 1036.65 890.436C1259.56 775.017 1403.26 826.053 1482.57 696.508C1540.68 601.802 1488.77 533.697 1546.63 366.412C1586.95 249.972 1652.61 165.706 1702.42 112.143" stroke="#FF414E" stroke-opacity="0.15" stroke-width="5" stroke-miterlimit="10"/>
<path d="M-41.7126 2089.51C56.4574 2032.85 163.611 1994.44 274.598 1976.13C537.545 1933.96 667.813 2036.24 738.29 1965.37C847.332 1855.97 566.436 1580.94 671.262 1278.62C748.25 1056.73 995.085 928.906 1052.25 899.338C1275.12 783.902 1418.81 834.974 1498.16 705.409C1556.27 610.704 1504.35 542.634 1562.26 375.33C1602.56 258.839 1668.2 174.608 1718.04 121.062" stroke="#FF414E" stroke-opacity="0.15" stroke-width="5" stroke-miterlimit="10"/>
<path d="M-26.2302 2098.57C71.9398 2041.91 179.094 2003.5 290.081 1985.2C553.027 1943.03 683.295 2045.31 753.79 1974.4C862.709 1864.81 581.866 1589.93 686.829 1287.51C763.8 1065.65 1010.53 937.78 1067.82 908.226C1290.67 792.825 1434.41 843.878 1513.71 714.333C1571.82 619.627 1519.95 551.539 1577.81 384.254C1618.11 267.762 1683.75 183.531 1733.59 129.985" stroke="#FF414E" stroke-opacity="0.15" stroke-width="5" stroke-miterlimit="10"/>
<path d="M-10.6648 2107.46C87.5114 2050.81 194.663 2012.41 305.646 1994.09C568.627 1951.93 698.861 2054.2 769.338 1983.32C878.275 1873.7 597.415 1598.86 702.377 1296.43C779.366 1074.54 1026.2 946.718 1083.36 917.15C1306.23 801.714 1449.96 852.802 1529.28 723.221C1587.39 628.515 1535.5 560.462 1593.37 393.142C1633.67 276.65 1699.32 192.419 1749.16 138.873" stroke="#FF414E" stroke-opacity="0.15" stroke-width="5" stroke-miterlimit="10"/>
</svg>
